<svg width="500" height="500" viewBox="0 0 500 500" fill="none" xmlns="http://www.w3.org/2000/svg">
<path d="M215.262 444.949C215.262 451.063 217.69 456.926 222.013 461.249C226.336 465.572 232.2 468.001 238.313 468.001H261.366C267.48 468.001 273.343 465.572 277.666 461.249C281.989 456.926 284.418 451.063 284.418 444.949H307.471C307.471 457.177 302.613 468.904 293.967 477.55C285.321 486.196 273.594 491.054 261.366 491.054H238.313C226.086 491.054 214.359 486.196 205.713 477.55C197.067 468.904 192.209 457.177 192.209 444.949H215.262ZM230.381 87.5557C203.96 91.659 179.329 104.046 160.188 123.188C136.41 146.965 123.053 179.214 123.053 212.84C123.053 262.172 151.176 305.049 192.209 325.796V385.731C192.209 391.845 194.638 397.709 198.961 402.032C203.284 406.355 209.148 408.784 215.262 408.784H284.418C290.532 408.784 296.396 406.355 300.719 402.032C305.042 397.709 307.471 391.845 307.471 385.731V325.796C326.354 316.248 342.503 302.013 354.436 284.62H381.375C369.243 306.85 351.681 325.756 330.522 339.627V385.731C330.522 397.959 325.665 409.686 317.019 418.332C308.372 426.978 296.646 431.836 284.418 431.836H215.262C203.034 431.836 191.306 426.978 182.66 418.332C174.014 409.686 169.157 397.959 169.157 385.731V339.627C127.663 312.425 100 265.86 100 212.84C100 173.1 115.786 134.987 143.887 106.887C167.361 83.4129 197.821 68.5343 230.381 64.2705V87.5557Z" fill="#268BD2"/>
<path d="M250.101 160.721V239.974L197.722 273.644" stroke="#268BD2" stroke-width="19.5443" stroke-linecap="round"/>
<mask id="path-3-inside-1_187_41" fill="white">
<path d="M273.029 48.3376C275.566 50.2568 278.562 51.4785 281.718 51.8814C284.873 52.2842 288.08 51.8541 291.018 50.6338C293.956 49.4136 296.524 47.4456 298.466 44.9256C300.408 42.4055 301.656 39.4211 302.087 36.269L320.26 38.6472C319.864 41.8057 320.302 45.0128 321.531 47.9495C322.759 50.8862 324.735 53.4499 327.262 55.3858C329.789 57.3216 332.779 58.562 335.934 58.9835C339.089 59.4051 342.3 58.993 345.246 57.7885L352.275 74.7029C357.696 72.5412 363.986 71.4666 370.284 71.1696C370.056 70.0306 369.711 68.901 369.249 67.7809L362.136 50.6705C360.298 46.2315 356.78 42.6988 352.349 40.8424C347.918 38.9861 342.932 38.9566 338.479 40.7604C339.061 35.9906 337.734 31.1841 334.787 27.389C331.839 23.5939 327.511 21.1179 322.746 20.501L304.379 18.0975C294.445 16.7974 285.342 23.739 283.96 33.638C280.121 30.7451 275.293 29.4882 270.53 30.1416C265.768 30.7949 261.457 33.3055 258.538 37.1255L247.275 51.8186C241.182 59.7702 242.653 71.127 250.524 77.2709C246.1 79.1497 242.598 82.7021 240.783 87.1532C238.967 91.6043 238.986 96.5926 240.835 101.03L247.937 118.139C251.778 127.39 262.342 131.792 271.605 128.05C270.698 135.547 274.487 142.561 280.679 146.095C281.548 139.173 284.198 132.385 288.758 126.45L289.769 125.129C289.347 122.403 288.313 119.809 286.746 117.541C285.178 115.272 283.116 113.388 280.716 112.031C278.315 110.673 275.639 109.877 272.887 109.702C270.134 109.527 267.379 109.978 264.826 111.021L257.799 94.0942C270.645 88.6776 272.903 71.4258 261.883 62.8859L273.029 48.3376Z"/>
<path d="M302.664 102.578C307.484 103.209 312.356 101.899 316.21 98.9369C320.064 95.9749 322.584 91.6032 323.215 86.7836C323.845 81.9639 322.536 77.0911 319.574 73.2371C316.612 69.3831 312.24 66.8636 307.42 66.2329C302.601 65.6021 297.728 66.9118 293.874 69.8738C290.02 72.8359 287.5 77.2076 286.87 82.0272C286.239 86.8469 287.549 91.7197 290.511 95.5737C293.473 99.4277 297.844 101.947 302.664 102.578Z"/>
<path fill-rule="evenodd" clip-rule="evenodd" d="M347.123 177.723C348.412 167.874 353.56 158.942 361.435 152.889C369.31 146.837 379.267 144.161 389.115 145.449C398.963 146.738 407.896 151.886 413.948 159.761C420.001 167.636 422.677 177.593 421.388 187.441C420.099 197.29 414.951 206.222 407.076 212.275C399.201 218.327 389.244 221.003 379.396 219.715C369.548 218.426 360.615 213.278 354.563 205.403C348.51 197.528 345.834 187.571 347.123 177.723ZM386.747 163.636C384.257 163.31 381.728 163.478 379.303 164.129C376.878 164.781 374.605 165.904 372.614 167.434C370.623 168.965 368.953 170.872 367.699 173.048C366.445 175.223 365.632 177.625 365.306 180.114C364.98 182.604 365.148 185.134 365.8 187.559C366.452 189.984 367.575 192.257 369.105 194.248C370.635 196.239 372.542 197.909 374.718 199.163C376.894 200.417 379.295 201.23 381.785 201.556C386.813 202.214 391.897 200.847 395.918 197.757C399.939 194.667 402.568 190.105 403.226 185.077C403.884 180.048 402.518 174.964 399.427 170.943C396.337 166.922 391.776 164.294 386.747 163.636Z"/>
<path fill-rule="evenodd" clip-rule="evenodd" d="M294.453 205.247C293.323 202.529 292.74 199.616 292.737 196.674C292.734 193.731 293.311 190.816 294.435 188.097C295.558 185.377 297.207 182.906 299.287 180.824C301.366 178.742 303.835 177.09 306.554 175.962C307.211 175.688 307.785 175.245 308.218 174.679C308.65 174.113 308.927 173.443 309.019 172.736C309.112 172.029 309.017 171.311 308.745 170.653C308.472 169.994 308.031 169.419 307.467 168.984C302.753 165.37 299.669 160.032 298.891 154.144C298.113 148.255 299.706 142.299 303.32 137.586L319.757 116.127C323.37 111.417 328.706 108.334 334.591 107.556C340.476 106.778 346.43 108.369 351.143 111.978C351.708 112.415 352.379 112.694 353.087 112.788C353.795 112.882 354.516 112.787 355.176 112.513C355.835 112.24 356.411 111.796 356.845 111.229C357.278 110.661 357.554 109.989 357.645 109.28C359.249 97.0198 370.485 88.3734 382.746 89.9779L409.556 93.4865C421.829 95.0926 430.461 106.339 428.857 118.599C428.451 121.701 431.553 124.079 434.434 122.878C437.148 121.747 440.059 121.162 443 121.157C445.941 121.152 448.854 121.728 451.572 122.85C454.29 123.973 456.76 125.621 458.84 127.699C460.92 129.778 462.57 132.246 463.695 134.964L474.066 159.955C475.195 162.669 475.779 165.579 475.783 168.518C475.787 171.458 475.211 174.369 474.089 177.086C472.966 179.802 471.319 182.271 469.242 184.351C467.164 186.43 464.697 188.08 461.982 189.205C461.322 189.477 460.745 189.918 460.31 190.484C459.875 191.05 459.597 191.721 459.504 192.429C459.411 193.138 459.507 193.857 459.782 194.517C460.057 195.176 460.501 195.751 461.069 196.183C465.779 199.797 468.861 205.132 469.639 211.018C470.417 216.903 468.827 222.856 465.217 227.569L448.792 249.03C447.004 251.365 444.773 253.324 442.227 254.797C439.681 256.27 436.87 257.227 433.954 257.613C431.038 257.999 428.075 257.807 425.233 257.048C422.392 256.289 419.727 254.978 417.393 253.189C416.826 252.753 416.155 252.475 415.446 252.381C414.738 252.287 414.017 252.382 413.356 252.655C412.696 252.929 412.119 253.371 411.684 253.938C411.249 254.505 410.971 255.177 410.878 255.885C409.272 268.158 398.038 276.792 385.778 275.188L358.979 271.681C353.092 270.91 347.751 267.833 344.131 263.126C340.512 258.419 338.91 252.468 339.677 246.58C339.769 245.871 339.674 245.151 339.399 244.491C339.125 243.831 338.681 243.255 338.113 242.821C337.546 242.387 336.874 242.11 336.165 242.018C335.456 241.926 334.736 242.023 334.076 242.298C328.591 244.572 322.428 244.575 316.942 242.306C311.455 240.038 307.093 235.683 304.816 230.2L294.453 205.247ZM313.58 192.889C313.085 193.093 312.635 193.394 312.256 193.773C311.877 194.151 311.577 194.602 311.372 195.097C311.168 195.592 311.063 196.123 311.064 196.659C311.065 197.195 311.172 197.725 311.379 198.22L321.742 223.174C322.603 225.258 324.977 226.234 327.061 225.373C342.971 218.768 360.086 231.864 357.849 248.958C357.559 251.175 359.128 253.216 361.357 253.508L388.156 257.015C389.226 257.155 390.308 256.864 391.163 256.207C392.019 255.549 392.578 254.579 392.718 253.509C394.954 236.427 414.852 228.162 428.538 238.641C430.331 240.009 432.877 239.664 434.244 237.884L450.681 216.425C451.334 215.569 451.62 214.489 451.478 213.422C451.336 212.354 450.777 211.387 449.923 210.731C436.248 200.255 439.031 178.894 454.955 172.278C455.448 172.076 455.896 171.778 456.273 171.402C456.65 171.025 456.948 170.578 457.151 170.086C457.354 169.593 457.458 169.065 457.456 168.533C457.454 168 457.346 167.473 457.139 166.982L446.767 142.002C446.566 141.507 446.269 141.057 445.892 140.678C445.516 140.298 445.068 139.998 444.574 139.793C444.08 139.589 443.55 139.484 443.016 139.486C442.481 139.488 441.953 139.596 441.46 139.805C425.549 146.422 408.449 133.303 410.684 116.221C410.824 115.151 410.534 114.07 409.876 113.214C409.219 112.358 408.248 111.799 407.178 111.659L380.38 108.152C379.85 108.079 379.311 108.113 378.794 108.25C378.278 108.388 377.794 108.627 377.37 108.953C376.947 109.28 376.592 109.687 376.328 110.152C376.063 110.617 375.894 111.129 375.829 111.66C373.594 128.742 353.696 137.007 340.011 126.516C339.154 125.863 338.074 125.577 337.007 125.719C335.94 125.861 334.973 126.42 334.317 127.274L317.88 148.733C317.555 149.157 317.317 149.642 317.179 150.158C317.041 150.674 317.006 151.213 317.076 151.743C317.147 152.273 317.32 152.783 317.588 153.246C317.856 153.709 318.212 154.114 318.637 154.439C332.324 164.917 329.501 186.297 313.605 192.892"/>
</mask>
<path d="M273.029 48.3376C275.566 50.2568 278.562 51.4785 281.718 51.8814C284.873 52.2842 288.08 51.8541 291.018 50.6338C293.956 49.4136 296.524 47.4456 298.466 44.9256C300.408 42.4055 301.656 39.4211 302.087 36.269L320.26 38.6472C319.864 41.8057 320.302 45.0128 321.531 47.9495C322.759 50.8862 324.735 53.4499 327.262 55.3858C329.789 57.3216 332.779 58.562 335.934 58.9835C339.089 59.4051 342.3 58.993 345.246 57.7885L352.275 74.7029C357.696 72.5412 363.986 71.4666 370.284 71.1696C370.056 70.0306 369.711 68.901 369.249 67.7809L362.136 50.6705C360.298 46.2315 356.78 42.6988 352.349 40.8424C347.918 38.9861 342.932 38.9566 338.479 40.7604C339.061 35.9906 337.734 31.1841 334.787 27.389C331.839 23.5939 327.511 21.1179 322.746 20.501L304.379 18.0975C294.445 16.7974 285.342 23.739 283.96 33.638C280.121 30.7451 275.293 29.4882 270.53 30.1416C265.768 30.7949 261.457 33.3055 258.538 37.1255L247.275 51.8186C241.182 59.7702 242.653 71.127 250.524 77.2709C246.1 79.1497 242.598 82.7021 240.783 87.1532C238.967 91.6043 238.986 96.5926 240.835 101.03L247.937 118.139C251.778 127.39 262.342 131.792 271.605 128.05C270.698 135.547 274.487 142.561 280.679 146.095C281.548 139.173 284.198 132.385 288.758 126.45L289.769 125.129C289.347 122.403 288.313 119.809 286.746 117.541C285.178 115.272 283.116 113.388 280.716 112.031C278.315 110.673 275.639 109.877 272.887 109.702C270.134 109.527 267.379 109.978 264.826 111.021L257.799 94.0942C270.645 88.6776 272.903 71.4258 261.883 62.8859L273.029 48.3376Z" fill="#268BD2"/>
<path d="M302.664 102.578C307.484 103.209 312.356 101.899 316.21 98.9369C320.064 95.9749 322.584 91.6032 323.215 86.7836C323.845 81.9639 322.536 77.0911 319.574 73.2371C316.612 69.3831 312.24 66.8636 307.42 66.2329C302.601 65.6021 297.728 66.9118 293.874 69.8738C290.02 72.8359 287.5 77.2076 286.87 82.0272C286.239 86.8469 287.549 91.7197 290.511 95.5737C293.473 99.4277 297.844 101.947 302.664 102.578Z" fill="#268BD2"/>
<path fill-rule="evenodd" clip-rule="evenodd" d="M347.123 177.723C348.412 167.874 353.56 158.942 361.435 152.889C369.31 146.837 379.267 144.161 389.115 145.449C398.963 146.738 407.896 151.886 413.948 159.761C420.001 167.636 422.677 177.593 421.388 187.441C420.099 197.29 414.951 206.222 407.076 212.275C399.201 218.327 389.244 221.003 379.396 219.715C369.548 218.426 360.615 213.278 354.563 205.403C348.51 197.528 345.834 187.571 347.123 177.723ZM386.747 163.636C384.257 163.31 381.728 163.478 379.303 164.129C376.878 164.781 374.605 165.904 372.614 167.434C370.623 168.965 368.953 170.872 367.699 173.048C366.445 175.223 365.632 177.625 365.306 180.114C364.98 182.604 365.148 185.134 365.8 187.559C366.452 189.984 367.575 192.257 369.105 194.248C370.635 196.239 372.542 197.909 374.718 199.163C376.894 200.417 379.295 201.23 381.785 201.556C386.813 202.214 391.897 200.847 395.918 197.757C399.939 194.667 402.568 190.105 403.226 185.077C403.884 180.048 402.518 174.964 399.427 170.943C396.337 166.922 391.776 164.294 386.747 163.636Z" fill="#268BD2"/>
<path fill-rule="evenodd" clip-rule="evenodd" d="M294.453 205.247C293.323 202.529 292.74 199.616 292.737 196.674C292.734 193.731 293.311 190.816 294.435 188.097C295.558 185.377 297.207 182.906 299.287 180.824C301.366 178.742 303.835 177.09 306.554 175.962C307.211 175.688 307.785 175.245 308.218 174.679C308.65 174.113 308.927 173.443 309.019 172.736C309.112 172.029 309.017 171.311 308.745 170.653C308.472 169.994 308.031 169.419 307.467 168.984C302.753 165.37 299.669 160.032 298.891 154.144C298.113 148.255 299.706 142.299 303.32 137.586L319.757 116.127C323.37 111.417 328.706 108.334 334.591 107.556C340.476 106.778 346.43 108.369 351.143 111.978C351.708 112.415 352.379 112.694 353.087 112.788C353.795 112.882 354.516 112.787 355.176 112.513C355.835 112.24 356.411 111.796 356.845 111.229C357.278 110.661 357.554 109.989 357.645 109.28C359.249 97.0198 370.485 88.3734 382.746 89.9779L409.556 93.4865C421.829 95.0926 430.461 106.339 428.857 118.599C428.451 121.701 431.553 124.079 434.434 122.878C437.148 121.747 440.059 121.162 443 121.157C445.941 121.152 448.854 121.728 451.572 122.85C454.29 123.973 456.76 125.621 458.84 127.699C460.92 129.778 462.57 132.246 463.695 134.964L474.066 159.955C475.195 162.669 475.779 165.579 475.783 168.518C475.787 171.458 475.211 174.369 474.089 177.086C472.966 179.802 471.319 182.271 469.242 184.351C467.164 186.43 464.697 188.08 461.982 189.205C461.322 189.477 460.745 189.918 460.31 190.484C459.875 191.05 459.597 191.721 459.504 192.429C459.411 193.138 459.507 193.857 459.782 194.517C460.057 195.176 460.501 195.751 461.069 196.183C465.779 199.797 468.861 205.132 469.639 211.018C470.417 216.903 468.827 222.856 465.217 227.569L448.792 249.03C447.004 251.365 444.773 253.324 442.227 254.797C439.681 256.27 436.87 257.227 433.954 257.613C431.038 257.999 428.075 257.807 425.233 257.048C422.392 256.289 419.727 254.978 417.393 253.189C416.826 252.753 416.155 252.475 415.446 252.381C414.738 252.287 414.017 252.382 413.356 252.655C412.696 252.929 412.119 253.371 411.684 253.938C411.249 254.505 410.971 255.177 410.878 255.885C409.272 268.158 398.038 276.792 385.778 275.188L358.979 271.681C353.092 270.91 347.751 267.833 344.131 263.126C340.512 258.419 338.91 252.468 339.677 246.58C339.769 245.871 339.674 245.151 339.399 244.491C339.125 243.831 338.681 243.255 338.113 242.821C337.546 242.387 336.874 242.11 336.165 242.018C335.456 241.926 334.736 242.023 334.076 242.298C328.591 244.572 322.428 244.575 316.942 242.306C311.455 240.038 307.093 235.683 304.816 230.2L294.453 205.247ZM313.58 192.889C313.085 193.093 312.635 193.394 312.256 193.773C311.877 194.151 311.577 194.602 311.372 195.097C311.168 195.592 311.063 196.123 311.064 196.659C311.065 197.195 311.172 197.725 311.379 198.22L321.742 223.174C322.603 225.258 324.977 226.234 327.061 225.373C342.971 218.768 360.086 231.864 357.849 248.958C357.559 251.175 359.128 253.216 361.357 253.508L388.156 257.015C389.226 257.155 390.308 256.864 391.163 256.207C392.019 255.549 392.578 254.579 392.718 253.509C394.954 236.427 414.852 228.162 428.538 238.641C430.331 240.009 432.877 239.664 434.244 237.884L450.681 216.425C451.334 215.569 451.62 214.489 451.478 213.422C451.336 212.354 450.777 211.387 449.923 210.731C436.248 200.255 439.031 178.894 454.955 172.278C455.448 172.076 455.896 171.778 456.273 171.402C456.65 171.025 456.948 170.578 457.151 170.086C457.354 169.593 457.458 169.065 457.456 168.533C457.454 168 457.346 167.473 457.139 166.982L446.767 142.002C446.566 141.507 446.269 141.057 445.892 140.678C445.516 140.298 445.068 139.998 444.574 139.793C444.08 139.589 443.55 139.484 443.016 139.486C442.481 139.488 441.953 139.596 441.46 139.805C425.549 146.422 408.449 133.303 410.684 116.221C410.824 115.151 410.534 114.07 409.876 113.214C409.219 112.358 408.248 111.799 407.178 111.659L380.38 108.152C379.85 108.079 379.311 108.113 378.794 108.25C378.278 108.388 377.794 108.627 377.37 108.953C376.947 109.28 376.592 109.687 376.328 110.152C376.063 110.617 375.894 111.129 375.829 111.66C373.594 128.742 353.696 137.007 340.011 126.516C339.154 125.863 338.074 125.577 337.007 125.719C335.94 125.861 334.973 126.42 334.317 127.274L317.88 148.733C317.555 149.157 317.317 149.642 317.179 150.158C317.041 150.674 317.006 151.213 317.076 151.743C317.147 152.273 317.32 152.783 317.588 153.246C317.856 153.709 318.212 154.114 318.637 154.439C332.324 164.917 329.501 186.297 313.605 192.892" fill="#268BD2"/>
<path d="M273.029 48.3376L280.399 38.5928L270.715 31.2675L263.33 40.9069L273.029 48.3376ZM302.087 36.269L303.673 24.154L291.628 22.5777L289.982 34.6131L302.087 36.269ZM320.26 38.6472L332.383 40.1667L333.895 28.109L321.845 26.5321L320.26 38.6472ZM345.246 57.7885L356.529 53.1001L351.868 41.8816L340.623 46.4787L345.246 57.7885ZM352.275 74.7029L340.992 79.3912L345.613 90.5129L356.8 86.0523L352.275 74.7029ZM370.284 71.1696L370.86 83.3743L385.064 82.7044L382.263 68.7628L370.284 71.1696ZM369.249 67.7809L380.547 63.1279L380.539 63.1091L380.531 63.0904L369.249 67.7809ZM362.136 50.6705L350.846 55.3439L350.85 55.3525L350.853 55.3611L362.136 50.6705ZM338.479 40.7604L326.351 39.2807L323.839 59.8739L343.067 52.0849L338.479 40.7604ZM322.746 20.501L321.16 32.616L321.168 32.6171L321.177 32.6182L322.746 20.501ZM283.96 33.638L276.608 43.3964L293.191 55.8914L296.061 35.327L283.96 33.638ZM258.538 37.1255L268.235 44.5589L268.241 44.5511L268.247 44.5432L258.538 37.1255ZM247.275 51.8186L237.578 44.3852L237.577 44.3872L247.275 51.8186ZM250.524 77.2709L255.3 88.5173L274.4 80.4071L258.043 67.6393L250.524 77.2709ZM240.835 101.03L252.12 96.3458L252.117 96.3382L252.114 96.3306L240.835 101.03ZM247.937 118.139L236.652 122.823L236.652 122.824L247.937 118.139ZM271.605 128.05L283.735 129.518L286.221 108.97L267.029 116.721L271.605 128.05ZM280.679 146.095L274.623 156.707L290.522 165.78L292.802 147.617L280.679 146.095ZM288.758 126.45L298.446 133.895L298.455 133.884L298.463 133.873L288.758 126.45ZM289.769 125.129L299.474 132.551L302.64 128.412L301.843 123.261L289.769 125.129ZM264.826 111.021L253.541 115.705L258.199 126.926L269.446 122.332L264.826 111.021ZM257.799 94.0942L253.052 82.8357L241.856 87.5565L246.514 98.7788L257.799 94.0942ZM261.883 62.8859L252.184 55.4552L244.794 65.1008L254.399 72.5437L261.883 62.8859ZM302.664 102.578L301.078 114.693L302.664 102.578ZM386.747 163.636L388.333 151.521L386.747 163.636ZM381.785 201.556L383.37 189.441L381.785 201.556ZM294.453 205.247L305.737 200.56L305.735 200.557L294.453 205.247ZM306.554 175.962L311.234 187.248L311.249 187.242L311.264 187.236L306.554 175.962ZM307.467 168.984L314.92 159.302L314.911 159.295L314.901 159.288L307.467 168.984ZM303.32 137.586L313.017 145.019L313.019 145.016L303.32 137.586ZM319.757 116.127L310.063 108.69L310.057 108.697L319.757 116.127ZM351.143 111.978L358.607 102.305L358.589 102.291L358.572 102.278L351.143 111.978ZM357.645 109.28L345.53 107.695L345.527 107.714L345.525 107.733L357.645 109.28ZM434.434 122.878L439.134 134.156L439.134 134.156L434.434 122.878ZM463.695 134.964L452.406 139.637L452.41 139.647L463.695 134.964ZM474.066 159.955L462.78 164.638L462.786 164.651L474.066 159.955ZM475.783 168.518L463.564 168.535L475.783 168.518ZM461.982 189.205L466.634 200.503L466.646 200.498L466.659 200.493L461.982 189.205ZM461.069 196.183L468.506 186.489L468.488 186.476L468.471 186.462L461.069 196.183ZM465.217 227.569L455.517 220.141L455.515 220.143L465.217 227.569ZM448.792 249.03L458.492 256.46L458.495 256.456L448.792 249.03ZM417.393 253.189L409.945 262.875L409.954 262.882L409.962 262.888L417.393 253.189ZM410.878 255.885L398.764 254.296L398.763 254.3L410.878 255.885ZM358.979 271.681L360.565 259.566L360.565 259.566L358.979 271.681ZM339.677 246.58L327.561 244.998L327.561 245.001L339.677 246.58ZM334.076 242.298L338.755 253.585L338.768 253.58L338.78 253.574L334.076 242.298ZM304.816 230.2L293.532 234.887L293.532 234.887L304.816 230.2ZM311.379 198.22L322.663 193.534L322.657 193.519L322.651 193.505L311.379 198.22ZM321.742 223.174L333.035 218.509L333.031 218.498L333.026 218.487L321.742 223.174ZM327.061 225.373L331.726 236.666L331.736 236.662L331.746 236.658L327.061 225.373ZM388.156 257.015L386.57 269.13L388.156 257.015ZM392.718 253.509L404.833 255.094L392.718 253.509ZM428.538 238.641L421.111 248.342L421.118 248.348L421.125 248.353L428.538 238.641ZM434.244 237.884L443.936 245.324L443.944 245.314L434.244 237.884ZM450.681 216.425L460.381 223.855L460.39 223.843L460.399 223.832L450.681 216.425ZM449.923 210.731L457.363 201.04L457.354 201.033L449.923 210.731ZM454.955 172.278L450.315 160.975L450.291 160.985L450.267 160.995L454.955 172.278ZM457.139 166.982L445.855 171.668L445.868 171.698L445.88 171.728L457.139 166.982ZM446.767 142.002L435.445 146.596L435.464 146.642L435.483 146.688L446.767 142.002ZM441.46 139.805L446.152 151.086L446.186 151.072L446.219 151.058L441.46 139.805ZM380.38 108.152L378.72 120.257L378.757 120.262L378.794 120.267L380.38 108.152ZM375.829 111.66L387.944 113.245L387.952 113.19L387.958 113.135L375.829 111.66ZM340.011 126.516L347.444 116.819L347.431 116.809L347.417 116.798L340.011 126.516ZM334.317 127.274L324.626 119.834L324.617 119.844L334.317 127.274ZM317.88 148.733L327.578 156.165L327.58 156.163L317.88 148.733ZM318.637 154.439L326.064 144.737L326.063 144.736L318.637 154.439ZM273.029 48.3376L265.658 58.0824C269.896 61.2879 274.899 63.3285 280.17 64.0014L281.718 51.8814L283.265 39.7614C282.224 39.6285 281.236 39.2257 280.399 38.5928L273.029 48.3376ZM281.718 51.8814L280.17 64.0014C285.442 64.6742 290.797 63.9558 295.704 61.9177L291.018 50.6338L286.332 39.35C285.363 39.7524 284.305 39.8942 283.265 39.7614L281.718 51.8814ZM291.018 50.6338L295.704 61.9177C300.612 59.8795 304.9 56.5926 308.144 52.3835L298.466 44.9256L288.787 37.4676C288.147 38.2986 287.3 38.9476 286.332 39.35L291.018 50.6338ZM298.466 44.9256L308.144 52.3835C311.387 48.1744 313.473 43.1897 314.193 37.9249L302.087 36.269L289.982 34.6131C289.84 35.6525 289.428 36.6366 288.787 37.4676L298.466 44.9256ZM302.087 36.269L300.502 48.384L318.674 50.7622L320.26 38.6472L321.845 26.5321L303.673 24.154L302.087 36.269ZM320.26 38.6472L308.136 37.1276C307.475 42.4031 308.207 47.7599 310.259 52.6648L321.531 47.9495L332.802 43.2342C332.397 42.2658 332.253 41.2083 332.383 40.1667L320.26 38.6472ZM321.531 47.9495L310.259 52.6648C312.311 57.5697 315.611 61.8518 319.832 65.0851L327.262 55.3858L334.692 45.6864C333.859 45.0481 333.207 44.2026 332.802 43.2342L321.531 47.9495ZM327.262 55.3858L319.832 65.0851C324.052 68.3185 329.046 70.3902 334.316 71.0943L335.934 58.9835L337.552 46.8728C336.512 46.7338 335.526 46.3248 334.692 45.6864L327.262 55.3858ZM335.934 58.9835L334.316 71.0943C339.586 71.7983 344.949 71.1101 349.87 69.0982L345.246 57.7885L340.623 46.4787C339.651 46.8759 338.593 47.0118 337.552 46.8728L335.934 58.9835ZM345.246 57.7885L333.963 62.4768L340.992 79.3912L352.275 74.7029L363.558 70.0145L356.529 53.1001L345.246 57.7885ZM352.275 74.7029L356.8 86.0523C360.595 84.539 365.457 83.6292 370.86 83.3743L370.284 71.1696L369.709 58.9648C362.515 59.3041 354.797 60.5434 347.749 63.3535L352.275 74.7029ZM370.284 71.1696L382.263 68.7628C381.874 66.8229 381.294 64.9423 380.547 63.1279L369.249 67.7809L357.952 72.434C358.127 72.8598 358.238 73.2383 358.306 73.5763L370.284 71.1696ZM369.249 67.7809L380.531 63.0904L373.418 45.98L362.136 50.6705L350.853 55.3611L357.967 72.4715L369.249 67.7809ZM362.136 50.6705L373.425 45.9972C370.354 38.5789 364.475 32.6753 357.07 29.573L352.349 40.8424L347.628 52.1118C349.085 52.7223 350.242 53.8841 350.846 55.3439L362.136 50.6705ZM352.349 40.8424L357.07 29.573C349.665 26.4708 341.333 26.4215 333.892 29.4359L338.479 40.7604L343.067 52.0849C344.531 51.4917 346.171 51.5014 347.628 52.1118L352.349 40.8424ZM338.479 40.7604L350.608 42.2401C351.58 34.2691 349.362 26.2368 344.437 19.8946L334.787 27.389L325.137 34.8834C326.106 36.1314 326.542 37.7121 326.351 39.2807L338.479 40.7604ZM334.787 27.389L344.437 19.8946C339.511 13.5525 332.278 9.4148 324.314 8.3838L322.746 20.501L321.177 32.6182C322.744 32.8211 324.167 33.6353 325.137 34.8834L334.787 27.389ZM322.746 20.501L324.331 8.38597L305.965 5.98243L304.379 18.0975L302.794 30.2125L321.16 32.616L322.746 20.501ZM304.379 18.0975L305.965 5.98243C289.383 3.81246 274.169 15.4038 271.859 31.9489L283.96 33.638L296.061 35.327C296.515 32.0741 299.507 29.7823 302.794 30.2125L304.379 18.0975ZM283.96 33.638L291.313 23.8796C284.897 19.0452 276.829 16.9448 268.87 18.0366L270.53 30.1416L272.191 42.2465C273.757 42.0317 275.345 42.445 276.608 43.3964L283.96 33.638ZM270.53 30.1416L268.87 18.0366C260.911 19.1285 253.707 23.324 248.829 29.7077L258.538 37.1255L268.247 44.5432C269.207 43.287 270.625 42.4614 272.191 42.2465L270.53 30.1416ZM258.538 37.1255L248.841 29.692L237.578 44.3852L247.275 51.8186L256.972 59.252L268.235 44.5589L258.538 37.1255ZM247.275 51.8186L237.577 44.3872C227.399 57.6694 229.858 76.639 243.006 86.9024L250.524 77.2709L258.043 67.6393C255.449 65.6149 254.965 61.8711 256.974 59.25L247.275 51.8186ZM250.524 77.2709L245.749 66.0244C238.355 69.1642 232.503 75.1009 229.469 82.5392L240.783 87.1532L252.096 91.7672C252.693 90.3034 253.845 89.1351 255.3 88.5173L250.524 77.2709ZM240.783 87.1532L229.469 82.5392C226.435 89.9776 226.467 98.3138 229.556 105.729L240.835 101.03L252.114 96.3306C251.506 94.8714 251.499 93.2309 252.096 91.7672L240.783 87.1532ZM240.835 101.03L229.55 105.714L236.652 122.823L247.937 118.139L259.221 113.455L252.12 96.3458L240.835 101.03ZM247.937 118.139L236.652 122.824C243.069 138.279 260.717 145.625 276.181 139.38L271.605 128.05L267.029 116.721C263.966 117.958 260.487 116.502 259.221 113.453L247.937 118.139ZM271.605 128.05L259.475 126.583C257.958 139.122 264.302 150.817 274.623 156.707L280.679 146.095L286.735 135.483C284.671 134.306 283.438 131.972 283.735 129.518L271.605 128.05ZM280.679 146.095L292.802 147.617C293.41 142.775 295.255 138.048 298.446 133.895L288.758 126.45L279.069 119.006C273.141 126.722 269.686 135.57 268.555 144.573L280.679 146.095ZM288.758 126.45L298.463 133.873L299.474 132.551L289.769 125.129L280.063 117.706L279.052 119.028L288.758 126.45ZM289.769 125.129L301.843 123.261C301.14 118.712 299.414 114.381 296.797 110.594L286.746 117.541L276.694 124.487C277.213 125.238 277.554 126.095 277.694 126.997L289.769 125.129ZM286.746 117.541L296.797 110.594C294.179 106.807 290.738 103.662 286.731 101.396L280.716 112.031L274.7 122.666C275.494 123.114 276.176 123.737 276.694 124.487L286.746 117.541ZM280.716 112.031L286.731 101.396C282.724 99.1291 278.256 97.8001 273.662 97.5081L272.887 109.702L272.112 121.896C273.022 121.953 273.907 122.217 274.7 122.666L280.716 112.031ZM272.887 109.702L273.662 97.5081C269.067 97.2161 264.467 97.9689 260.205 99.7098L264.826 111.021L269.446 122.332C270.29 121.987 271.202 121.838 272.112 121.896L272.887 109.702ZM264.826 111.021L276.11 106.336L269.083 89.4096L257.799 94.0942L246.514 98.7788L253.541 115.705L264.826 111.021ZM257.799 94.0942L262.546 105.353C284.004 96.3052 287.774 67.4925 269.367 53.2281L261.883 62.8859L254.399 72.5437C258.032 75.3591 257.287 81.05 253.052 82.8357L257.799 94.0942ZM261.883 62.8859L271.582 70.3166L282.728 55.7683L273.029 48.3376L263.33 40.9069L252.184 55.4552L261.883 62.8859ZM302.664 102.578L301.078 114.693C309.111 115.744 317.233 113.561 323.656 108.625L316.21 98.9369L308.765 89.2492C307.48 90.2366 305.856 90.6731 304.249 90.4629L302.664 102.578ZM316.21 98.9369L323.656 108.625C330.079 103.688 334.278 96.4018 335.33 88.369L323.215 86.7836L311.1 85.1981C310.889 86.8047 310.05 88.2619 308.765 89.2492L316.21 98.9369ZM323.215 86.7836L335.33 88.369C336.381 80.3363 334.198 72.2149 329.261 65.7916L319.574 73.2371L309.886 80.6826C310.873 81.9673 311.31 83.5916 311.1 85.1981L323.215 86.7836ZM319.574 73.2371L329.261 65.7916C324.325 59.3682 317.039 55.169 309.006 54.1178L307.42 66.2329L305.835 78.3479C307.441 78.5581 308.899 79.398 309.886 80.6826L319.574 73.2371ZM307.42 66.2329L309.006 54.1178C300.973 53.0666 292.852 55.2494 286.428 60.1861L293.874 69.8738L301.319 79.5615C302.604 78.5742 304.228 78.1376 305.835 78.3479L307.42 66.2329ZM293.874 69.8738L286.428 60.1861C280.005 65.1228 275.806 72.409 274.755 80.4418L286.87 82.0272L298.985 83.6127C299.195 82.0061 300.035 80.5489 301.319 79.5615L293.874 69.8738ZM286.87 82.0272L274.755 80.4418C273.703 88.4745 275.886 96.5959 280.823 103.019L290.511 95.5737L300.198 88.1282C299.211 86.8435 298.774 85.2192 298.985 83.6127L286.87 82.0272ZM290.511 95.5737L280.823 103.019C285.76 109.443 293.046 113.642 301.078 114.693L302.664 102.578L304.249 90.4629C302.643 90.2527 301.186 89.4128 300.198 88.1282L290.511 95.5737ZM347.123 177.723L359.238 179.308C360.106 172.673 363.575 166.655 368.881 162.577L361.435 152.889L353.989 143.201C343.545 151.229 336.717 163.076 335.008 176.137L347.123 177.723ZM361.435 152.889L368.881 162.577C374.186 158.499 380.894 156.696 387.53 157.564L389.115 145.449L390.7 133.334C377.639 131.625 364.434 135.174 353.989 143.201L361.435 152.889ZM389.115 145.449L387.53 157.564C394.165 158.433 400.183 161.901 404.261 167.207L413.948 159.761L423.636 152.316C415.609 141.872 403.762 135.044 390.7 133.334L389.115 145.449ZM413.948 159.761L404.261 167.207C408.338 172.513 410.141 179.221 409.273 185.856L421.388 187.441L433.503 189.027C435.212 175.966 431.663 162.76 423.636 152.316L413.948 159.761ZM421.388 187.441L409.273 185.856C408.405 192.491 404.936 198.509 399.631 202.587L407.076 212.275L414.522 221.963C424.966 213.935 431.794 202.088 433.503 189.027L421.388 187.441ZM407.076 212.275L399.631 202.587C394.325 206.665 387.617 208.468 380.982 207.6L379.396 219.715L377.811 231.83C390.872 233.539 404.077 229.99 414.522 221.963L407.076 212.275ZM379.396 219.715L380.982 207.6C374.347 206.731 368.328 203.263 364.25 197.957L354.563 205.403L344.875 212.848C352.902 223.292 364.749 230.12 377.811 231.83L379.396 219.715ZM354.563 205.403L364.25 197.957C360.173 192.651 358.37 185.943 359.238 179.308L347.123 177.723L335.008 176.137C333.299 189.198 336.848 202.404 344.875 212.848L354.563 205.403ZM386.747 163.636L388.333 151.521C384.252 150.987 380.106 151.262 376.131 152.33L379.303 164.129L382.474 175.929C383.35 175.694 384.263 175.633 385.162 175.751L386.747 163.636ZM379.303 164.129L376.131 152.33C372.157 153.398 368.431 155.239 365.168 157.747L372.614 167.434L380.059 177.122C380.778 176.57 381.599 176.164 382.474 175.929L379.303 164.129ZM372.614 167.434L365.168 157.747C361.905 160.255 359.168 163.381 357.113 166.947L367.699 173.048L378.285 179.149C378.738 178.363 379.341 177.675 380.059 177.122L372.614 167.434ZM367.699 173.048L357.113 166.947C355.058 170.512 353.725 174.448 353.191 178.529L365.306 180.114L377.421 181.7C377.539 180.801 377.832 179.934 378.285 179.149L367.699 173.048ZM365.306 180.114L353.191 178.529C352.657 182.61 352.932 186.756 354 190.73L365.8 187.559L377.599 184.388C377.364 183.512 377.303 182.599 377.421 181.7L365.306 180.114ZM365.8 187.559L354 190.73C355.069 194.705 356.909 198.43 359.417 201.693L369.105 194.248L378.793 186.802C378.24 186.084 377.835 185.263 377.599 184.388L365.8 187.559ZM369.105 194.248L359.417 201.693C361.925 204.957 365.051 207.694 368.617 209.749L374.718 199.163L380.819 188.577C380.034 188.124 379.345 187.521 378.793 186.802L369.105 194.248ZM374.718 199.163L368.617 209.749C372.183 211.804 376.119 213.137 380.199 213.671L381.785 201.556L383.37 189.441C382.471 189.323 381.605 189.03 380.819 188.577L374.718 199.163ZM381.785 201.556L380.199 213.671C388.441 214.749 396.774 212.51 403.364 207.445L395.918 197.757L388.473 188.069C387.021 189.185 385.186 189.678 383.37 189.441L381.785 201.556ZM395.918 197.757L403.364 207.445C409.954 202.38 414.263 194.904 415.341 186.662L403.226 185.077L391.111 183.491C390.874 185.307 389.924 186.954 388.473 188.069L395.918 197.757ZM403.226 185.077L415.341 186.662C416.42 178.421 414.18 170.088 409.115 163.498L399.427 170.943L389.74 178.389C390.855 179.841 391.349 181.676 391.111 183.491L403.226 185.077ZM399.427 170.943L409.115 163.498C404.05 156.908 396.574 152.599 388.333 151.521L386.747 163.636L385.162 175.751C386.977 175.988 388.624 176.937 389.74 178.389L399.427 170.943ZM294.453 205.247L305.735 200.557C305.222 199.322 304.957 197.998 304.955 196.661L292.737 196.674L280.519 196.686C280.524 201.234 281.425 205.737 283.17 209.937L294.453 205.247ZM292.737 196.674L304.955 196.661C304.954 195.323 305.216 193.999 305.727 192.763L294.435 188.097L283.142 183.431C281.406 187.634 280.514 192.138 280.519 196.686L292.737 196.674ZM294.435 188.097L305.727 192.763C306.238 191.527 306.987 190.404 307.932 189.458L299.287 180.824L290.641 172.19C287.427 175.408 284.879 179.227 283.142 183.431L294.435 188.097ZM299.287 180.824L307.932 189.458C308.877 188.511 309.999 187.761 311.234 187.248L306.554 175.962L301.873 164.676C297.672 166.418 293.855 168.972 290.641 172.19L299.287 180.824ZM306.554 175.962L311.264 187.236C313.896 186.136 316.193 184.365 317.925 182.098L308.218 174.679L298.51 167.259C299.377 166.125 300.526 165.239 301.843 164.689L306.554 175.962ZM308.218 174.679L317.925 182.098C319.658 179.832 320.764 177.15 321.134 174.322L309.019 172.736L296.904 171.151C297.089 169.735 297.643 168.394 298.51 167.259L308.218 174.679ZM309.019 172.736L321.134 174.322C321.504 171.493 321.125 168.617 320.035 165.981L308.745 170.653L297.454 175.324C296.909 174.005 296.719 172.566 296.904 171.151L309.019 172.736ZM308.745 170.653L320.035 165.981C318.944 163.345 317.18 161.042 314.92 159.302L307.467 168.984L300.014 178.666C298.883 177.795 298 176.643 297.454 175.324L308.745 170.653ZM307.467 168.984L314.901 159.288C312.759 157.646 311.358 155.22 311.004 152.544L298.891 154.144L286.778 155.744C287.98 164.844 292.748 173.095 300.032 178.68L307.467 168.984ZM298.891 154.144L311.004 152.544C310.651 149.868 311.375 147.161 313.017 145.019L303.32 137.586L293.623 130.152C288.038 137.438 285.576 146.643 286.778 155.744L298.891 154.144ZM303.32 137.586L313.019 145.016L329.456 123.557L319.757 116.127L310.057 108.697L293.62 130.156L303.32 137.586ZM319.757 116.127L329.451 123.564C331.093 121.424 333.518 120.023 336.192 119.669L334.591 107.556L332.99 95.4433C323.894 96.6456 315.647 101.41 310.063 108.69L319.757 116.127ZM334.591 107.556L336.192 119.669C338.867 119.316 341.572 120.038 343.714 121.679L351.143 111.978L358.572 102.278C351.287 96.6991 342.086 94.2409 332.99 95.4433L334.591 107.556ZM351.143 111.978L343.678 121.651C345.948 123.402 348.639 124.523 351.48 124.9L353.087 112.788L354.695 100.676C356.119 100.865 357.469 101.427 358.607 102.305L351.143 111.978ZM353.087 112.788L351.48 124.9C354.321 125.277 357.211 124.897 359.858 123.799L355.176 112.513L350.493 101.228C351.82 100.677 353.27 100.487 354.695 100.676L353.087 112.788ZM355.176 112.513L359.858 123.799C362.506 122.7 364.816 120.922 366.555 118.644L356.845 111.229L347.134 103.813C348.007 102.671 349.165 101.779 350.493 101.228L355.176 112.513ZM356.845 111.229L366.555 118.644C368.295 116.367 369.402 113.67 369.765 110.827L357.645 109.28L345.525 107.733C345.707 106.308 346.262 104.955 347.134 103.813L356.845 111.229ZM357.645 109.28L369.76 110.866C370.49 105.288 375.599 101.365 381.16 102.093L382.746 89.9779L384.331 77.8629C365.371 75.3816 348.009 88.752 345.53 107.695L357.645 109.28ZM382.746 89.9779L381.16 102.093L407.971 105.602L409.556 93.4865L411.142 81.3715L384.331 77.8629L382.746 89.9779ZM409.556 93.4865L407.971 105.602C413.548 106.331 417.471 111.44 416.742 117.014L428.857 118.599L440.972 120.185C443.451 101.238 430.109 83.8537 411.142 81.3715L409.556 93.4865ZM428.857 118.599L416.742 117.014C415.12 129.409 427.528 138.993 439.134 134.156L434.434 122.878L429.734 111.6C435.579 109.164 441.782 113.992 440.972 120.185L428.857 118.599ZM434.434 122.878L439.134 134.156C440.366 133.643 441.686 133.378 443.02 133.375L443 121.157L442.98 108.939C438.432 108.946 433.93 109.851 429.733 111.6L434.434 122.878ZM443 121.157L443.02 133.375C444.354 133.373 445.675 133.634 446.907 134.143L451.572 122.85L456.236 111.557C452.032 109.821 447.528 108.931 442.98 108.939L443 121.157ZM451.572 122.85L446.907 134.143C448.14 134.652 449.261 135.4 450.204 136.343L458.84 127.699L467.476 119.056C464.259 115.842 460.439 113.293 456.236 111.557L451.572 122.85ZM458.84 127.699L450.204 136.343C451.148 137.285 451.896 138.405 452.406 139.637L463.695 134.964L474.984 130.29C473.245 126.088 470.693 122.27 467.476 119.056L458.84 127.699ZM463.695 134.964L452.41 139.647L462.78 164.638L474.066 159.955L485.351 155.272L474.981 130.281L463.695 134.964ZM474.066 159.955L462.786 164.651C463.298 165.882 463.563 167.201 463.564 168.535L475.783 168.518L488.001 168.502C487.995 163.956 487.093 159.456 485.346 155.26L474.066 159.955ZM475.783 168.518L463.564 168.535C463.566 169.868 463.305 171.188 462.796 172.42L474.089 177.086L485.381 181.751C487.117 177.55 488.007 173.047 488.001 168.502L475.783 168.518ZM474.089 177.086L462.796 172.42C462.287 173.653 461.54 174.772 460.598 175.715L469.242 184.351L477.886 192.986C481.099 189.77 483.646 185.952 485.381 181.751L474.089 177.086ZM469.242 184.351L460.598 175.715C459.656 176.659 458.537 177.407 457.305 177.917L461.982 189.205L466.659 200.493C470.858 198.753 474.673 196.202 477.886 192.986L469.242 184.351ZM461.982 189.205L457.33 177.907C454.681 178.997 452.367 180.768 450.621 183.04L460.31 190.484L469.998 197.929C469.123 199.068 467.962 199.956 466.634 200.503L461.982 189.205ZM460.31 190.484L450.621 183.04C448.876 185.311 447.761 188.004 447.389 190.844L459.504 192.429L471.619 194.015C471.433 195.439 470.874 196.79 469.998 197.929L460.31 190.484ZM459.504 192.429L447.389 190.844C447.017 193.685 447.402 196.573 448.504 199.217L459.782 194.517L471.06 189.816C471.613 191.142 471.805 192.59 471.619 194.015L459.504 192.429ZM459.782 194.517L448.504 199.217C449.606 201.862 451.387 204.168 453.666 205.904L461.069 196.183L468.471 186.462C469.614 187.333 470.507 188.49 471.06 189.816L459.782 194.517ZM461.069 196.183L453.631 205.877C455.772 207.519 457.173 209.944 457.526 212.619L469.639 211.018L481.752 209.416C480.55 200.32 475.785 192.074 468.506 186.489L461.069 196.183ZM469.639 211.018L457.526 212.619C457.88 215.293 457.157 217.999 455.517 220.141L465.217 227.569L474.918 234.998C480.496 227.714 482.955 218.512 481.752 209.416L469.639 211.018ZM465.217 227.569L455.515 220.143L439.09 241.604L448.792 249.03L458.495 256.456L474.92 234.995L465.217 227.569ZM448.792 249.03L439.093 241.6C438.28 242.661 437.266 243.551 436.109 244.221L442.227 254.797L448.345 265.374C452.28 263.097 455.728 260.069 458.492 256.46L448.792 249.03ZM442.227 254.797L436.109 244.221C434.952 244.89 433.675 245.325 432.35 245.5L433.954 257.613L435.558 269.725C440.065 269.128 444.41 267.65 448.345 265.374L442.227 254.797ZM433.954 257.613L432.35 245.5C431.024 245.676 429.678 245.589 428.386 245.244L425.233 257.048L422.08 268.853C426.472 270.026 431.052 270.322 435.558 269.725L433.954 257.613ZM425.233 257.048L428.386 245.244C427.095 244.899 425.884 244.303 424.823 243.49L417.393 253.189L409.962 262.888C413.57 265.653 417.688 267.679 422.08 268.853L425.233 257.048ZM417.393 253.189L424.84 243.503C422.572 241.759 419.885 240.643 417.048 240.268L415.446 252.381L413.844 264.494C412.425 264.306 411.08 263.748 409.945 262.875L417.393 253.189ZM415.446 252.381L417.048 240.268C414.212 239.893 411.327 240.272 408.683 241.366L413.356 252.655L418.03 263.945C416.707 264.492 415.263 264.682 413.844 264.494L415.446 252.381ZM413.356 252.655L408.683 241.366C406.04 242.46 403.731 244.231 401.99 246.501L411.684 253.938L421.379 261.375C420.507 262.511 419.352 263.397 418.03 263.945L413.356 252.655ZM411.684 253.938L401.99 246.501C400.249 248.771 399.136 251.459 398.764 254.296L410.878 255.885L422.993 257.474C422.807 258.894 422.25 260.239 421.379 261.375L411.684 253.938ZM410.878 255.885L398.763 254.3C398.032 259.886 392.928 263.801 387.363 263.073L385.778 275.188L384.192 287.303C403.148 289.783 420.512 276.43 422.993 257.471L410.878 255.885ZM385.778 275.188L387.363 263.073L360.565 259.566L358.979 271.681L357.394 283.796L384.192 287.303L385.778 275.188ZM358.979 271.681L360.565 259.566C357.889 259.215 355.462 257.817 353.817 255.678L344.131 263.126L334.446 270.575C340.04 277.849 348.294 282.605 357.394 283.796L358.979 271.681ZM344.131 263.126L353.817 255.678C352.172 253.539 351.444 250.834 351.793 248.159L339.677 246.58L327.561 245.001C326.375 254.101 328.852 263.3 334.446 270.575L344.131 263.126ZM339.677 246.58L351.792 248.162C352.163 245.325 351.779 242.44 350.681 239.799L339.399 244.491L328.118 249.182C327.568 247.861 327.376 246.417 327.561 244.998L339.677 246.58ZM339.399 244.491L350.681 239.799C349.582 237.157 347.807 234.851 345.534 233.114L338.113 242.821L330.693 252.527C329.556 251.658 328.667 250.504 328.118 249.182L339.399 244.491ZM338.113 242.821L345.534 233.114C343.261 231.376 340.571 230.268 337.734 229.901L336.165 242.018L334.596 254.135C333.176 253.951 331.83 253.397 330.693 252.527L338.113 242.821ZM336.165 242.018L337.734 229.901C334.896 229.533 332.012 229.92 329.372 231.021L334.076 242.298L338.78 253.574C337.459 254.126 336.016 254.319 334.596 254.135L336.165 242.018ZM334.076 242.298L329.397 231.011C326.904 232.044 324.103 232.046 321.61 231.015L316.942 242.306L312.273 253.598C320.753 257.104 330.279 257.099 338.755 253.585L334.076 242.298ZM316.942 242.306L321.61 231.015C319.117 229.984 317.134 228.005 316.1 225.513L304.816 230.2L293.532 234.887C297.052 243.362 303.793 250.091 312.273 253.598L316.942 242.306ZM304.816 230.2L316.1 225.514L305.737 200.56L294.453 205.247L283.169 209.933L293.532 234.887L304.816 230.2ZM313.58 192.889L308.918 181.595C306.935 182.413 305.134 183.616 303.616 185.133L312.256 193.773L320.895 202.412C320.136 203.172 319.235 203.773 318.243 204.183L313.58 192.889ZM312.256 193.773L303.616 185.133C302.099 186.65 300.897 188.451 300.078 190.434L311.372 195.097L322.666 199.76C322.256 200.752 321.654 201.653 320.895 202.412L312.256 193.773ZM311.372 195.097L300.078 190.434C299.26 192.417 298.841 194.542 298.846 196.688L311.064 196.659L323.282 196.631C323.285 197.704 323.075 198.767 322.666 199.76L311.372 195.097ZM311.064 196.659L298.846 196.688C298.851 198.833 299.28 200.956 300.107 202.935L311.379 198.22L322.651 193.505C323.065 194.495 323.28 195.557 323.282 196.631L311.064 196.659ZM311.379 198.22L300.095 202.906L310.458 227.86L321.742 223.174L333.026 218.487L322.663 193.534L311.379 198.22ZM321.742 223.174L310.449 227.838C313.906 236.206 323.452 240.084 331.726 236.666L327.061 225.373L322.397 214.08C326.502 212.384 331.301 214.31 333.035 218.509L321.742 223.174ZM327.061 225.373L331.746 236.658C338.976 233.656 346.75 239.612 345.734 247.373L357.849 248.958L369.964 250.543C373.423 224.116 346.967 203.879 322.376 214.089L327.061 225.373ZM357.849 248.958L345.734 247.373C344.565 256.304 350.876 264.459 359.772 265.623L361.357 253.508L362.943 241.393C367.381 241.974 370.553 246.046 369.964 250.543L357.849 248.958ZM361.357 253.508L359.772 265.623L386.57 269.13L388.156 257.015L389.741 244.9L362.943 241.393L361.357 253.508ZM388.156 257.015L386.57 269.13C390.853 269.691 395.184 268.527 398.609 265.895L391.163 256.207L383.718 246.519C385.431 245.202 387.598 244.62 389.741 244.9L388.156 257.015ZM391.163 256.207L398.609 265.895C402.034 263.262 404.273 259.377 404.833 255.094L392.718 253.509L380.603 251.923C380.883 249.78 382.004 247.836 383.718 246.519L391.163 256.207ZM392.718 253.509L404.833 255.094C405.848 247.34 414.888 243.578 421.111 248.342L428.538 238.641L435.966 228.939C414.815 212.746 384.059 225.513 380.603 251.923L392.718 253.509ZM428.538 238.641L421.125 248.353C428.282 253.816 438.477 252.436 443.936 245.324L434.244 237.884L424.552 230.444C427.278 226.892 432.38 226.202 435.952 228.928L428.538 238.641ZM434.244 237.884L443.944 245.314L460.381 223.855L450.681 216.425L440.981 208.995L424.544 230.454L434.244 237.884ZM450.681 216.425L460.399 223.832C463.011 220.404 464.159 216.081 463.59 211.809L451.478 213.422L439.367 215.035C439.082 212.897 439.656 210.734 440.964 209.019L450.681 216.425ZM451.478 213.422L463.59 211.809C463.021 207.537 460.782 203.664 457.363 201.04L449.923 210.731L442.482 220.423C440.772 219.11 439.651 217.172 439.367 215.035L451.478 213.422ZM449.923 210.731L457.354 201.033C451.142 196.273 452.405 186.569 459.643 183.562L454.955 172.278L450.267 160.995C425.657 171.22 421.354 204.236 442.492 220.43L449.923 210.731ZM454.955 172.278L459.595 183.581C461.581 182.766 463.386 181.565 464.905 180.048L456.273 171.402L447.64 162.755C448.405 161.991 449.314 161.386 450.315 160.975L454.955 172.278ZM456.273 171.402L464.905 180.048C466.425 178.531 467.628 176.729 468.447 174.744L457.151 170.086L445.856 165.427C446.268 164.428 446.874 163.519 447.64 162.755L456.273 171.402ZM457.151 170.086L468.447 174.744C469.265 172.759 469.682 170.632 469.674 168.485L457.456 168.533L445.238 168.58C445.233 167.499 445.444 166.427 445.856 165.427L457.151 170.086ZM457.456 168.533L469.674 168.485C469.666 166.338 469.232 164.214 468.398 162.236L457.139 166.982L445.88 171.728C445.46 170.732 445.242 169.662 445.238 168.58L457.456 168.533ZM457.139 166.982L468.423 162.297L458.051 137.317L446.767 142.002L435.483 146.688L445.855 171.668L457.139 166.982ZM446.767 142.002L458.089 137.409C457.279 135.413 456.081 133.598 454.563 132.069L445.892 140.678L437.221 149.286C436.457 148.516 435.853 147.601 435.445 146.596L446.767 142.002ZM445.892 140.678L454.563 132.069C453.046 130.541 451.239 129.329 449.249 128.505L444.574 139.793L439.899 151.082C438.896 150.666 437.986 150.056 437.221 149.286L445.892 140.678ZM444.574 139.793L449.249 128.505C447.259 127.68 445.124 127.26 442.97 127.268L443.016 139.486L443.061 151.705C441.976 151.709 440.901 151.497 439.899 151.082L444.574 139.793ZM443.016 139.486L442.97 127.268C440.816 127.276 438.685 127.712 436.701 128.551L441.46 139.805L446.219 151.058C445.22 151.481 444.147 151.7 443.061 151.705L443.016 139.486ZM441.46 139.805L436.769 128.523C429.564 131.519 421.782 125.58 422.799 117.807L410.684 116.221L398.569 114.636C395.116 141.027 421.533 161.325 446.152 151.086L441.46 139.805ZM410.684 116.221L422.799 117.807C423.36 113.524 422.196 109.193 419.564 105.768L409.876 113.214L400.188 120.66C398.871 118.946 398.289 116.779 398.569 114.636L410.684 116.221ZM409.876 113.214L419.564 105.768C416.932 102.344 413.047 100.105 408.763 99.544L407.178 111.659L405.593 123.774C403.449 123.494 401.505 122.373 400.188 120.66L409.876 113.214ZM407.178 111.659L408.763 99.544L381.965 96.037L380.38 108.152L378.794 120.267L405.593 123.774L407.178 111.659ZM380.38 108.152L382.039 96.0469C379.904 95.7542 377.732 95.8891 375.65 96.4436L378.794 108.25L381.939 120.057C380.89 120.337 379.796 120.405 378.72 120.257L380.38 108.152ZM378.794 108.25L375.65 96.4436C373.568 96.9982 371.617 97.9613 369.91 99.277L377.37 108.953L384.83 118.63C383.971 119.293 382.988 119.778 381.939 120.057L378.794 108.25ZM377.37 108.953L369.91 99.277C368.203 100.593 366.776 102.235 365.71 104.107L376.328 110.152L386.946 116.197C386.409 117.14 385.69 117.967 384.83 118.63L377.37 108.953ZM376.328 110.152L365.71 104.107C364.644 105.98 363.961 108.046 363.7 110.185L375.829 111.66L387.958 113.135C387.827 114.213 387.483 115.253 386.946 116.197L376.328 110.152ZM375.829 111.66L363.714 110.074C362.7 117.829 353.663 121.586 347.444 116.819L340.011 126.516L332.577 136.213C353.729 152.427 384.488 139.655 387.944 113.245L375.829 111.66ZM340.011 126.516L347.417 116.798C343.99 114.186 339.666 113.039 335.394 113.607L337.007 125.719L338.62 137.83C336.483 138.115 334.319 137.541 332.604 136.234L340.011 126.516ZM337.007 125.719L335.394 113.607C331.122 114.176 327.25 116.415 324.626 119.834L334.317 127.274L344.009 134.715C342.695 136.425 340.758 137.546 338.62 137.83L337.007 125.719ZM334.317 127.274L324.617 119.844L308.18 141.303L317.88 148.733L327.58 156.163L344.017 134.704L334.317 127.274ZM317.88 148.733L308.182 141.301C306.88 143 305.926 144.938 305.374 147.005L317.179 150.158L328.983 153.311C328.707 154.345 328.23 155.315 327.578 156.165L317.88 148.733ZM317.179 150.158L305.374 147.005C304.822 149.072 304.683 151.228 304.964 153.349L317.076 151.743L329.189 150.137C329.329 151.198 329.26 152.277 328.983 153.311L317.179 150.158ZM317.076 151.743L304.964 153.349C305.245 155.47 305.942 157.515 307.014 159.367L317.588 153.246L328.163 147.125C328.699 148.052 329.048 149.075 329.189 150.137L317.076 151.743ZM317.588 153.246L307.014 159.367C308.085 161.219 309.512 162.841 311.211 164.142L318.637 154.439L326.063 144.736C326.913 145.387 327.627 146.199 328.163 147.125L317.588 153.246ZM318.637 154.439L311.209 164.14C317.414 168.891 316.142 178.611 308.923 181.606L313.605 192.892L318.286 204.178C342.86 193.983 347.233 160.944 326.064 144.737L318.637 154.439Z" fill="#268BD2" mask="url(#path-3-inside-1_187_41)"/>
</svg>
